<svg width="95" height="18" viewBox="0 0 95 18" fill="none" xmlns="http://www.w3.org/2000/svg">
<path d="M5.62668e-08 12.852V0.816H2.924V10.319H7.582V12.852H5.62668e-08ZM14.172 12.852V11.679H14.138C14.036 11.8717 13.9 12.053 13.73 12.223C13.5714 12.393 13.3787 12.5403 13.152 12.665C12.9367 12.7897 12.693 12.8917 12.421 12.971C12.1604 13.0503 11.8827 13.09 11.588 13.09C11.0214 13.09 10.5397 12.988 10.143 12.784C9.7577 12.58 9.4404 12.3193 9.191 12.002C8.953 11.6733 8.7774 11.305 8.66402 10.897C8.56202 10.4777 8.51102 10.0527 8.51102 9.622V4.386H11.316V8.976C11.316 9.214 11.333 9.4407 11.367 9.656C11.401 9.8713 11.4634 10.064 11.554 10.234C11.656 10.404 11.7864 10.54 11.945 10.642C12.1037 10.7327 12.3134 10.778 12.574 10.778C13.0614 10.778 13.4297 10.5967 13.679 10.234C13.9397 9.8713 14.07 9.4463 14.07 8.959V4.386H16.858V12.852H14.172ZM24.5974 12.852V8.228C24.5974 7.99 24.5747 7.7633 24.5294 7.548C24.4954 7.3327 24.4331 7.1457 24.3424 6.987C24.2517 6.817 24.1214 6.6867 23.9514 6.596C23.7927 6.494 23.5887 6.443 23.3394 6.443C23.0901 6.443 22.8691 6.494 22.6764 6.596C22.4951 6.6867 22.3421 6.817 22.2174 6.987C22.0927 7.157 21.9964 7.3553 21.9284 7.582C21.8717 7.7973 21.8434 8.024 21.8434 8.262V12.852H19.0384V4.386H21.7414V5.559H21.7754C21.8774 5.37767 22.0077 5.202 22.1664 5.032C22.3364 4.85067 22.5291 4.69767 22.7444 4.573C22.9711 4.44833 23.2147 4.34633 23.4754 4.267C23.7361 4.18767 24.0137 4.148 24.3084 4.148C24.8751 4.148 25.3567 4.25 25.7534 4.454C26.1501 4.658 26.4674 4.92433 26.7054 5.253C26.9547 5.57033 27.1304 5.9387 27.2324 6.358C27.3457 6.7773 27.4024 7.1967 27.4024 7.616V12.852H24.5974ZM35.345 7.123C35.1863 6.919 34.971 6.7547 34.699 6.63C34.427 6.5053 34.1493 6.443 33.866 6.443C33.5713 6.443 33.305 6.5053 33.067 6.63C32.829 6.7433 32.625 6.902 32.455 7.106C32.285 7.2987 32.149 7.5253 32.047 7.786C31.9563 8.0467 31.911 8.3243 31.911 8.619C31.911 8.9137 31.9563 9.1913 32.047 9.452C32.1377 9.7127 32.268 9.945 32.438 10.149C32.6193 10.3417 32.829 10.4947 33.067 10.608C33.3163 10.7213 33.594 10.778 33.9 10.778C34.1833 10.778 34.461 10.727 34.733 10.625C35.0163 10.5117 35.243 10.353 35.413 10.149L36.96 12.036C36.6087 12.376 36.1553 12.6423 35.6 12.835C35.0447 13.0277 34.4553 13.124 33.832 13.124C33.1633 13.124 32.54 13.022 31.962 12.818C31.384 12.614 30.8797 12.3193 30.449 11.934C30.0297 11.5373 29.6953 11.0613 29.446 10.506C29.208 9.9507 29.089 9.3217 29.089 8.619C29.089 7.9277 29.208 7.3043 29.446 6.749C29.6953 6.1937 30.0297 5.72333 30.449 5.338C30.8797 4.94133 31.384 4.641 31.962 4.437C32.54 4.22167 33.1577 4.114 33.815 4.114C34.121 4.114 34.4213 4.14233 34.716 4.199C35.022 4.25567 35.311 4.335 35.583 4.437C35.8663 4.52767 36.1213 4.64667 36.348 4.794C36.586 4.93 36.79 5.083 36.96 5.253L35.345 7.123ZM43.6398 12.852V8.262C43.6398 8.024 43.6228 7.7973 43.5888 7.582C43.5548 7.3667 43.4868 7.1797 43.3848 7.021C43.2941 6.851 43.1695 6.7207 43.0108 6.63C42.8521 6.528 42.6481 6.477 42.3988 6.477C41.9115 6.477 41.5375 6.6527 41.2768 7.004C41.0161 7.344 40.8858 7.769 40.8858 8.279V12.852H38.0978V-2.36511e-07H40.8858V5.457H40.9198C41.1125 5.117 41.4185 4.81667 41.8378 4.556C42.2571 4.284 42.7615 4.148 43.3508 4.148C43.9288 4.148 44.4105 4.25 44.7958 4.454C45.1925 4.658 45.5098 4.92433 45.7478 5.253C45.9971 5.57033 46.1728 5.9387 46.2748 6.358C46.3881 6.7773 46.4448 7.1967 46.4448 7.616V12.852H43.6398ZM57.6949 3.298V12.852H54.7879V3.298H51.3879V0.816H61.0949V3.298H57.6949ZM65.4189 14.127C65.2489 14.569 65.0563 14.96 64.8409 15.3C64.6369 15.6513 64.3876 15.946 64.0929 16.184C63.8096 16.4333 63.4696 16.6203 63.0729 16.745C62.6876 16.8697 62.2286 16.932 61.6959 16.932C61.4353 16.932 61.1633 16.915 60.8799 16.881C60.6079 16.847 60.3699 16.8017 60.1659 16.745L60.4719 14.399C60.6079 14.4443 60.7553 14.4783 60.9139 14.501C61.0839 14.535 61.2369 14.552 61.3729 14.552C61.8036 14.552 62.1153 14.45 62.3079 14.246C62.5006 14.0533 62.6649 13.7757 62.8009 13.413L63.0729 12.716L59.5369 4.386H62.6309L64.5179 9.826H64.5689L66.2519 4.386H69.2099L65.4189 14.127ZM81.0994 12.852V8.228C81.0994 7.99 81.0824 7.7633 81.0484 7.548C81.0144 7.3213 80.9521 7.1287 80.8614 6.97C80.7708 6.8113 80.6461 6.6867 80.4874 6.596C80.3401 6.494 80.1418 6.443 79.8924 6.443C79.6544 6.443 79.4448 6.494 79.2634 6.596C79.0934 6.698 78.9461 6.834 78.8214 7.004C78.7081 7.174 78.6231 7.3723 78.5664 7.599C78.5098 7.8143 78.4814 8.041 78.4814 8.279V12.852H75.6934V8.024C75.6934 7.5367 75.5971 7.1513 75.4044 6.868C75.2118 6.5847 74.9058 6.443 74.4864 6.443C74.0444 6.443 73.6988 6.6187 73.4494 6.97C73.2114 7.3213 73.0924 7.752 73.0924 8.262V12.852H70.2874V4.386H72.9904V5.559H73.0244C73.1264 5.37767 73.2511 5.202 73.3984 5.032C73.5571 4.862 73.7441 4.71467 73.9594 4.59C74.1748 4.454 74.4128 4.34633 74.6734 4.267C74.9454 4.18767 75.2401 4.148 75.5574 4.148C76.1694 4.148 76.6851 4.27267 77.1044 4.522C77.5351 4.77133 77.8694 5.12833 78.1074 5.593C78.3908 5.151 78.7534 4.79967 79.1954 4.539C79.6374 4.27833 80.1758 4.148 80.8104 4.148C81.3884 4.148 81.8701 4.25567 82.2554 4.471C82.6521 4.675 82.9694 4.947 83.2074 5.287C83.4454 5.61567 83.6154 5.9897 83.7174 6.409C83.8308 6.817 83.8874 7.2193 83.8874 7.616V12.852H81.0994ZM91.8235 7.65C91.8235 7.208 91.6818 6.8283 91.3985 6.511C91.1265 6.1937 90.7128 6.035 90.1575 6.035C89.8855 6.035 89.6362 6.0803 89.4095 6.171C89.1828 6.2503 88.9845 6.3637 88.8145 6.511C88.6445 6.6583 88.5085 6.834 88.4065 7.038C88.3045 7.2307 88.2478 7.4347 88.2365 7.65H91.8235ZM94.3905 8.721C94.3905 8.8343 94.3905 8.9477 94.3905 9.061C94.3905 9.1743 94.3848 9.282 94.3735 9.384H88.2365C88.2592 9.622 88.3272 9.8373 88.4405 10.03C88.5652 10.2227 88.7182 10.3927 88.8995 10.54C89.0922 10.676 89.3018 10.7837 89.5285 10.863C89.7665 10.9423 90.0102 10.982 90.2595 10.982C90.7015 10.982 91.0755 10.9027 91.3815 10.744C91.6875 10.574 91.9368 10.3587 92.1295 10.098L94.0675 11.322C93.6708 11.9 93.1438 12.3477 92.4865 12.665C91.8405 12.971 91.0868 13.124 90.2255 13.124C89.5908 13.124 88.9902 13.0277 88.4235 12.835C87.8568 12.631 87.3582 12.342 86.9275 11.968C86.5082 11.5827 86.1738 11.1123 85.9245 10.557C85.6865 10.0017 85.5675 9.367 85.5675 8.653C85.5675 7.9617 85.6865 7.3383 85.9245 6.783C86.1625 6.2163 86.4855 5.74033 86.8935 5.355C87.3015 4.95833 87.7832 4.65233 88.3385 4.437C88.8938 4.22167 89.4945 4.114 90.1405 4.114C90.7638 4.114 91.3362 4.22167 91.8575 4.437C92.3788 4.641 92.8265 4.94133 93.2005 5.338C93.5745 5.73467 93.8635 6.2163 94.0675 6.783C94.2828 7.3497 94.3905 7.9957 94.3905 8.721Z" transform="translate(0.201004 0.542175)" fill="white"/>
</svg>
